<?xml version="1.0" encoding="UTF-8"?>
<svg id="Layer_2" data-name="Layer 2" xmlns="http://www.w3.org/2000/svg" viewBox="0 0 328.18 345.41">
  <g id="Layer_1-2" data-name="Layer 1">
    <path d="M169.09,0c19.83,10.03,39.8,19.78,59.46,30.14,26.64,14.04,53.02,28.57,79.54,42.82,13.23,7.11,20.09,17.96,20.08,33.08-.02,44.49-.02,88.97,0,133.46,0,14.66-6.38,25.61-19.24,32.56-42.58,23.04-85.19,46.03-127.86,68.91-11.77,6.31-23.66,5.69-35.34-.61-32.5-17.54-65-35.07-97.5-52.61-9.66-5.21-19.35-10.38-28.97-15.66C6.66,265.16,.03,254.54,.02,240.04c-.03-44.82-.03-89.64,0-134.46,.01-14.25,6.29-25.04,18.77-31.81C61.64,50.51,104.56,27.39,147.51,4.34,151.11,2.41,155.22,1.43,159.09,0c3.33,0,6.67,0,10,0Zm2,329.8c2.1-.85,3.36-1.23,4.5-1.84,42.18-22.7,84.36-45.41,126.52-68.16,8.04-4.34,12.06-11.14,12.06-20.32-.02-44.47,0-88.95-.04-133.42,0-2.24-.46-4.47-.76-7.14-1.71,.85-2.77,1.31-3.76,1.88-44.84,25.47-89.67,50.97-134.56,76.36-2.96,1.67-4.06,3.53-4.05,6.98,.12,46.81,.08,93.61,.08,140.42v5.24ZM14.77,98.66c-.29,3.22-.72,5.77-.72,8.33-.04,42.64,.3,85.29-.22,127.93-.16,13.46,5.26,21.46,16.95,27.57,35.66,18.66,70.91,38.08,106.34,57.18,6.36,3.43,12.79,6.73,19.69,10.36,.14-2.15,.27-3.29,.27-4.43,.01-47.31-.03-94.62,.1-141.93,0-3.41-1.38-4.97-4.08-6.51-28.66-16.21-57.26-32.54-85.89-48.81-17.19-9.77-34.41-19.49-52.44-29.7Zm8.9-11.56c1.07,.76,1.45,1.08,1.88,1.33,45.39,25.82,90.77,51.65,136.24,77.33,1.31,.74,3.85,.44,5.28-.35,13.68-7.58,27.24-15.36,40.83-23.1,6.15-3.5,12.3-7.02,18.73-10.69-.93-.79-1.38-1.29-1.94-1.61-44.37-25.6-88.74-51.21-133.19-76.67-1.34-.77-3.85-.63-5.29,.11-9.18,4.69-18.23,9.65-27.3,14.55-11.54,6.23-23.06,12.49-35.24,19.1ZM103.74,43.83c2.02,1.22,2.99,1.83,3.99,2.4,41.35,23.87,82.82,47.54,123.94,71.8,7.23,4.26,12.4,4.37,19.53,0,17.27-10.61,35.14-20.26,53.36-30.63-1.88-1.12-3.25-2-4.67-2.77-14.93-8.06-29.87-16.1-44.8-24.16-26.64-14.38-53.27-28.79-79.91-43.17-6.19-3.35-12.83-4.56-19.18-1.29-17.26,8.89-34.29,18.22-52.26,27.83Z"/>
  </g>
</svg>