<svg xmlns="http://www.w3.org/2000/svg" xml:space="preserve" id="Layer_1" width="40" height="40" x="0" y="0" style="enable-background:new 0 0 40 40" version="1.1"><style>.st0{fill:#fff}</style><path d="M8.9 27.4c-.6-1.3-1.1-2.3-1.4-3.1-.5 1.3-.8 2.8-.4 4.6.8 3 3.1 5.1 6.1 5.5-.4-.4-.8-.9-1.2-1.5 0 0-1.1-1.5-3.1-5.5zM18.1 29.4l-.1-.1c-.2-.2-.5-.3-.8-.3-.3 0-.5.1-.8.3l-.1.1c-.2.2-.3.5-.4.8V30.5c0 .2.1.4.2.5 0 .1.1.1.1.2.1.1.2.2.3.2.1 0 .2.1.3.1.1 0 .2.1.3.1.1 0 .2 0 .3-.1.1 0 .3-.1.4-.2.1-.1.2-.1.2-.2.2-.2.4-.6.4-.9 0-.3-.1-.5-.3-.7.1 0 .1 0 0-.1z" class="st0"/><path d="m21.6 28.1-4.3-7.5c-.6-1-1.5-1.6-3.1-2.5-.7-.3-1.7-1.3-1.3-3 .8-3.2 2.9-5 4.9-6.3 1.2-.8 1.3-1.5 1.3-2.2 0-.4-.1-1-.1-1.3 0-.2-.1-.3-.2-.3-.1-.1-.2-.1-.4-.1s-.4.1-.6.1C7.1 9.4 7.3 17.9 7.6 20.4c.2 1.8.4 3 2.2 6.5 1.9 3.9 3.1 5.3 3.1 5.4 1.8 3 4.7 3.3 6.7 2.2 1.9-1 3.4-3.5 2-6.4zm-2.4 3c-.3.8-1.1 1.4-2 1.4-.7 0-1.3-.3-1.7-.8-.2-.3-.3-.6-.4-.9-.1-.3-.1-.6-.1-1v-3.1c.3-.2.6-.3.9-.4v2.4c.4-.3.9-.5 1.4-.5.5 0 1 .2 1.3.5.7.6.9 1.6.6 2.4zM33.1 25.3c-.1-1.8-.9-3.4-2.4-4.4-1.6-1.1-3.7-1.4-5.6-1 .7.6 1.2 1.3 1.6 2 0 0 .6 1.2.8 2.3.7 3.4-.4 6-1.5 7.4-.1.1-.2.2-.3.4 1.7.2 3.6-.3 5.1-1.3 1-.7 2.2-2 2.3-4.1v-1.3z" class="st0"/><path d="M26.5 24.4c-.2-1-.7-2-.8-2-1-2-3.7-3.8-6-4.1-1.3-.1-2.6-.1-3.6-.1.8.5 1.5 1.1 2 1.9l4.4 7.5c1.1 2.3.7 4.5-.5 6 1.2-.6 2.3-1.5 3.2-2.6.9-1.3 1.9-3.5 1.3-6.6z" class="st0"/></svg>