<svg xmlns="http://www.w3.org/2000/svg" width="70" height="70" fill="none"><path fill="#161616" d="M70 35.8C70 16.1 54.3 0 35 0S0 16.1 0 35.8V42h34.9c2.8 0 5.1-2.2 5.1-5v-1.2c2.3-.6 4-2.8 4-5.3 0-3-2.5-5.5-5.5-5.5h-23c-3 0-5.5 2.5-5.5 5.5 0 2.9 2.2 5.2 5 5.5v4H2v-4.2C2 17.2 16.8 2 35 2s33 15.2 33 33.8v5.8l-12 12-2.8-2.8.2-.2c1.1-1.1 1.7-2.5 1.7-4.1 0-1.5-.6-3-1.7-4.1-2.3-2.2-5.9-2.2-8.2 0L27.9 59.8c-2.2 2.2-2.2 5.9 0 8.2 1.1 1.1 2.5 1.7 4.1 1.7 1.6 0 3-.6 4.1-1.7l.2-.2.7.7c.9.9 2.2 1.4 3.5 1.4 1.3 0 2.6-.5 3.5-1.4l26-26.1v-6.6Zm-58-5.3c0-1.9 1.6-3.5 3.5-3.5h23.1c1.9 0 3.5 1.6 3.5 3.5S40.4 34 38.5 34h-23c-1.9 0-3.5-1.6-3.5-3.5Zm5 5.5h21v1c0 1.6-1.4 3-3.1 3H17v-4Zm17.6 30.5c-1.5 1.5-3.9 1.5-5.3 0-1.5-1.5-1.5-3.9 0-5.3l17.4-17.4c.7-.7 1.7-1.1 2.7-1.1 1 0 1.9.4 2.7 1.1 1.5 1.5 1.5 3.9 0 5.3l-8.7 8.7-8.5 8.5-.3.2Zm8 .5c-1.1 1.1-3 1.1-4.2 0l-.7-.7 7.1-7.1 7.1-7.1 2.8 2.8L42.6 67Z"/></svg>