<svg xmlns="http://www.w3.org/2000/svg" width="70" height="70" fill="none"><path fill="#161616" d="M53.3 51.7c.5 0 1.6-.2 2.3-1.6 9.9-19.6 4.1-38.5-6.5-46.4-6.6-5-14.3-4.8-19.9.4-3.3 3-4.8 8.5-5.3 14.1-4.2-.5-8.1.9-11.4 4C7.7 26.6 6.6 36.1 7 43.5c.5 7.3 5.8 10.3 6.1 10.4l13.7 6.8c1.9 1 4.1 1 6 .4l-.2.3c-1.1 1.6-.5 3.9.3 5.5.8 1.4 2.1 2.9 3.6 2.9.5 0 1.6-.2 2.3-1.6 5.2-10.3 5.6-19.3 4.8-25.5 1.9.9 4 1 5.9.3l-.2.3c-1.1 1.6-.5 3.9.3 5.5.8 1.4 2.1 2.9 3.7 2.9 0 0-.1 0 0 0ZM36.4 39.1c.6 2.6 1 5.4 1 8.4 0 1.1-.1 2.2-.2 3.2-.7-1.5-1.9-2.8-3.5-3.6-.2-.1-13.7-6.9-16.5-8.8-3.3-2.3-4.1-4.6-3-8.2 1.4-4.7 5-7 9.5-6.1 0 .5 0 .9.1 1.4.5 7.3 5.8 10.3 6.1 10.4l6.5 3.3ZM27.7 59 14 52.1c-.2-.1-4.6-2.6-5-8.8-.5-7 .5-15.8 4.7-19.7 2.9-2.7 6.3-3.9 9.9-3.5v1.7c-5.3-.9-9.6 2-11.3 7.6-1.3 4.3-.2 7.6 3.8 10.4 2.8 2.1 16.1 8.7 16.6 9 1.3.7 2.3 1.8 2.8 3.3.5 1.4.4 3-.3 4.3-1.4 2.8-4.8 4-7.5 2.6Zm9.3 8.3c-.1.2-.3.5-.5.5-.4 0-1.2-.6-1.9-1.8-.7-1.3-.9-2.7-.4-3.4l.2-.3c1.5-2.2 4.9-7.3 4.9-14.8 0-2.5-.2-5-.7-7.3l2.7 1.4c1.1 5.9 1.1 15.1-4.3 25.7Zm14.4-19.4c-.7-1.3-.9-2.7-.4-3.4l.2-.3C52.6 42 56 36.9 56 29.4c0-11.2-5.5-24-15.9-25.6-.6-.1-1.1-.1-1.7-.1-4.4 0-8 2.8-9.5 7.7-1.3 4.3-.2 7.6 3.8 10.4 2.8 2.1 16.1 8.7 16.6 9 1.3.7 2.3 1.8 2.8 3.3.5 1.4.4 3-.3 4.3-1.4 2.8-4.8 3.9-7.6 2.5L30.7 34c-.2-.1-4.6-2.6-5-8.8-.5-7 .5-15.8 4.7-19.7 5-4.6 11.5-4.7 17.4-.3 9.9 7.4 15.3 25.4 5.9 43.9-.1.2-.3.5-.5.5-.3.1-1.2-.4-1.8-1.7Zm2.4-15.3c-.7-1.5-1.9-2.8-3.5-3.6-.1-.1-13.7-6.9-16.4-8.8-3.3-2.3-4.1-4.6-3-8.2 1.2-4 4-6.3 7.6-6.3.4 0 .9 0 1.3.1 6.9 1 14.2 9.7 14.2 23.6 0 1.1-.1 2.2-.2 3.2ZM68 52c0 8.8-7.2 16-16 16v2c9.9 0 18-8.1 18-18h-2ZM52 59v2c5 0 9-4 9-9h-2c0 3.9-3.1 7-7 7ZM18 0C8.1 0 0 8.1 0 18h2C2 9.2 9.2 2 18 2V0ZM11 18c0-3.9 3.1-7 7-7V9c-5 0-9 4-9 9h2Z"/></svg>