<svg xmlns="http://www.w3.org/2000/svg" width="50" height="70" fill="none"><path fill="#161616" d="M25 50c-8.7 0-15.7-7.3-15.7-16.3V16.3C9.3 7.3 16.3 0 25 0s15.7 7.3 15.7 16.3v17.3c0 9.1-7 16.4-15.7 16.4Zm0-48c-7.6 0-13.7 6.4-13.7 14.3v17.3c0 8 6.1 14.4 13.7 14.4s13.7-6.4 13.7-14.3V16.3C38.7 8.4 32.6 2 25 2Z"/><path fill="#161616" d="M25 50c-8.7 0-15.7-7.3-15.7-16.3V16.3C9.3 7.3 16.3 0 25 0s15.7 7.3 15.7 16.3v17.3c0 9.1-7 16.4-15.7 16.4Zm0-48c-7.6 0-13.7 6.4-13.7 14.3v17.3c0 8 6.1 14.4 13.7 14.4s13.7-6.4 13.7-14.3V16.3C38.7 8.4 32.6 2 25 2Z"/><path fill="#161616" d="M17 25.5h-2V10c0-5.5 4.5-10 10-10v2c-4.4 0-8 3.6-8 8v15.5ZM25 55.9c-11.9 0-21.6-9.5-21.6-21.1v-7.2h2v7.2c0 10.6 8.8 19.1 19.6 19.1s19.6-8.6 19.6-19.1v-7.5h2v7.5c0 11.6-9.7 21.1-21.6 21.1ZM50 36h-2v-8.8h2V36ZM2 36H0v-8.5h2V36Z"/><path fill="#161616" d="M26 55h-2v14h2V55Z"/><path fill="#161616" d="M35 68H15v2h20v-2ZM17 27.5h-2V36h2v-8.5Z"/></svg>