<svg xmlns="http://www.w3.org/2000/svg" width="40" height="40" fill="none"><g fill="#fff" clip-path="url(#a)"><path d="M23.34 19.67c.043.126.093.25.15.37.06.13.13.26.2.42.143.271.3.535.47.79.18.28.38.57.58.85l.33.47c.1.15.2.29.28.42.395.585.701 1.226.91 1.9a6.94 6.94 0 0 1 .31 2.11 7.05 7.05 0 0 1-14.1 0 7.267 7.267 0 0 1 .31-2.08c.2-.682.504-1.33.9-1.92l.3-.45.32-.47c.2-.28.41-.57.59-.85.167-.255.32-.519.46-.79l.2-.42.16-.37A8.25 8.25 0 1 0 27.77 27a8.251 8.251 0 0 0-4.43-7.31v-.02z"/><path d="M24.65 23.47c-.26-.39-.58-.84-.9-1.3a11.292 11.292 0 0 1-.82-1.34 6.549 6.549 0 0 1-.47-1.12 5.886 5.886 0 0 1-.16-1.51V5.8c0-1.83-.07-3.67-.14-3.82A12.32 12.32 0 0 0 17 2a33.619 33.619 0 0 0-.14 3.82v12.4a5.41 5.41 0 0 1-.17 1.51 5.24 5.24 0 0 1-.47 1.12c-.238.467-.512.915-.82 1.34-.31.46-.64.91-.89 1.3a6.06 6.06 0 0 0-.79 1.64 6.001 6.001 0 0 0-.4 1.87 6.2 6.2 0 1 0 12.4 0 6.37 6.37 0 0 0-1.07-3.53zm-5.13 7.76A4.27 4.27 0 0 1 15.27 27a4.19 4.19 0 0 1 2.11-3.65v3.57c.006.165.026.329.06.49.03.16.08.314.15.46a2.111 2.111 0 0 0 1 1.03 2 2 0 0 0 .94.22 2.13 2.13 0 0 0 1.98-1.38 2.07 2.07 0 0 0 .08-1.25 2.16 2.16 0 0 0-.59-1.1 2.068 2.068 0 0 0-.66-.39 2 2 0 0 0-.72-.16 2.17 2.17 0 0 0-.72.16 1.91 1.91 0 0 0-.64.38v-2.4c.2-.065.403-.115.61-.15.214-.04.432-.06.65-.06a4.25 4.25 0 1 1 0 8.5v-.04zM18.27 27a1.27 1.27 0 0 1 2.17-.91 1.239 1.239 0 0 1 .38.9 1.27 1.27 0 0 1-.37.9 1.24 1.24 0 0 1-.9.38A1.28 1.28 0 0 1 18.27 27z"/></g><defs><clipPath id="a"><path fill="#fff" d="M11 1h17v35H11z"/></clipPath></defs></svg>