<?xml version="1.0" encoding="UTF-8"?>
<svg id="Layer_2" data-name="Layer 2" xmlns="http://www.w3.org/2000/svg" viewBox="0 0 294.15 346">
  <g id="Layer_1-2" data-name="Layer 1">
    <g>
      <path d="M257.14,346H36.13c-1.23-.42-2.44-.9-3.7-1.24C13.27,339.65,.05,323,.04,303.51c-.06-63.98-.04-127.95,0-191.93,0-11.18,4.17-20.77,11.85-28.83,8.76-9.19,19.68-13.38,32.24-13.48,9.78-.08,19.56-.02,29.57-.02,.18-1.54,.29-2.5,.41-3.46,3.34-26.64,16.77-46.42,40.93-58.17,7.5-3.65,16.04-5.15,24.1-7.63,5,0,10,0,15,0,1.11,.31,2.21,.7,3.34,.91,30.74,5.6,50.85,23.23,59.91,53.18,1.43,4.73,1.97,9.74,3.02,15.17,9.87,0,19.84-.18,29.79,.04,16.15,.36,29.08,7.07,37.32,21.1,3.13,5.32,4.46,11.7,6.62,17.6v199c-.37,1.42-.77,2.84-1.09,4.28-2.73,12.21-9.12,22.02-19.96,28.31-4.9,2.85-10.61,4.32-15.95,6.41Zm-110.51-12.94c35.16,0,70.32,0,105.47,0,17.83,0,29.06-11.18,29.06-28.94,0-64.31,0-128.63,0-192.94,0-17.68-11.31-28.9-29.12-28.9-70.15,0-140.3,0-210.45,0-17.69,0-29.19,11.37-29.2,28.97-.03,64.15-.02,128.29,0,192.44,0,18.08,11.26,29.36,29.26,29.37,34.99,.02,69.98,0,104.97,0ZM206.14,68.98c-1.24-28.45-25.07-57.89-59.46-57.74-35.86,.15-58.56,31.63-59,57.74h118.46Z"/>
      <path d="M192.11,175.01c-19.07,15.31-14.39,38.48,3.33,47.44-.32,1.28-.36,2.86-1.07,4.02-4.6,7.45-8.89,15.16-14.18,22.09-4.8,6.29-11.9,7.3-18.95,3.99-8.33-3.91-16.25-3.75-24.49,.12-6.97,3.27-13.31,1.88-18.55-3.86-14.8-16.21-21.61-35.37-19.95-57.17,1.46-19.15,23.26-34.26,41.29-25.27,6.17,3.08,11.66,1.87,17.66-.47,14.12-5.52,27.07-2.03,34.91,9.11Z"/>
      <path d="M147.21,161.52c-3.16-10.25,9.26-27.1,22.78-27,3.89,12.07-9.66,28.13-22.78,27Z"/>
    </g>
  </g>
</svg>