<?xml version="1.0" encoding="UTF-8"?>
<svg id="Layer_2" data-name="Layer 2" xmlns="http://www.w3.org/2000/svg" viewBox="0 0 403.09 345.41">
  <g id="Layer_1-2" data-name="Layer 1">
    <g>
      <path d="M244,0c19.83,10.03,39.81,19.79,59.47,30.14,26.64,14.04,53.02,28.57,79.55,42.82,13.23,7.11,20.08,17.97,20.07,33.09-.02,44.49-.01,88.98,0,133.47,0,14.66-6.41,25.6-19.26,32.55-42.59,23.04-85.2,46.04-127.87,68.91-11.77,6.31-23.66,5.65-35.34-.66-32.5-17.55-65.01-35.08-97.51-52.61-9.66-5.21-19.36-10.36-28.98-15.66-12.6-6.95-19.18-17.58-19.2-32.08-.02-10.13,0-20.26,0-30.72h14.01c0,4.29,0,8.71,0,13.13,0,5.67,.04,11.33,0,17-.07,9.19,3.92,15.97,11.99,20.33,22.98,12.41,45.97,24.81,68.96,37.21,18.45,9.96,36.89,19.92,55.34,29.86,1.87,1.01,3.82,1.86,6.44,3.11,.14-2.21,.33-3.76,.33-5.31,.02-46.82,0-93.65,.05-140.47,0-2.8-.27-4.85-3.2-6.51-45.04-25.46-90-51.06-134.99-76.62-1.14-.65-2.34-1.18-4.38-2.2v66.67h-14.24c-.11-1.48-.3-2.93-.3-4.37-.02-18.66-.1-37.33,.02-55.99,.09-13.83,6.21-24.47,18.32-31.06C136.24,50.66,179.32,27.47,222.42,4.34c3.6-1.93,7.71-2.92,11.58-4.34,3.33,0,6.67,0,10,0Zm2,329.76c1.98-.79,3.38-1.21,4.64-1.88,42.19-22.69,84.37-45.39,126.52-68.15,7.84-4.23,11.89-10.93,11.9-19.91,.01-44.64,.02-89.28-.03-133.92,0-2.18-.52-4.37-.83-6.85-1.35,.55-1.99,.73-2.56,1.05-45.41,25.82-90.79,51.69-136.27,77.39-3.08,1.74-3.42,3.85-3.42,6.83,.05,46.64,.04,93.28,.04,139.92,0,1.62,0,3.24,0,5.53Zm55.65-198.14c-1.12-.88-1.59-1.35-2.15-1.68-44.22-25.5-88.43-51.02-132.76-76.33-1.63-.93-4.8-.52-6.63,.45-18.98,10-37.83,20.24-56.71,30.43-1.49,.8-2.9,1.75-4.46,2.71,.59,.59,.69,.75,.83,.82,45.67,25.98,91.33,51.96,137.05,77.86,1.06,.6,2.99,.76,4,.2,20.15-11.3,40.22-22.74,60.84-34.45ZM178.88,43.78c1.4,.97,2.02,1.49,2.72,1.88,43.81,25.27,87.64,50.5,131.4,75.84,2.55,1.47,4.37,1.28,6.77-.1,17.6-10.12,35.26-20.12,52.91-30.16,2.08-1.18,4.16-2.36,6.79-3.86-1.98-1.18-3.22-1.98-4.51-2.68-16.97-9.17-33.96-18.33-50.94-27.49-24.45-13.19-48.92-26.34-73.33-39.6-6.9-3.75-13.98-4.83-21.01-1.14-16.79,8.8-33.4,17.92-50.81,27.3Z"/>
      <path d="M0,187c1.72-2.4,3.17-5.06,5.21-7.14,10.39-10.59,20.92-21.03,31.42-31.5,4.16-4.15,8.17-4.77,11.32-1.81,3.32,3.12,2.86,7.5-1.36,11.72-6.93,6.94-13.92,13.81-22.06,21.88h6.56c33.83,0,67.65-.01,101.48,.03,2.12,0,4.36,.15,6.34,.84,3.24,1.13,5.07,4.06,3.9,7.1-.91,2.37-3.47,4.34-5.72,5.86-1.16,.78-3.24,.22-4.91,.22-33.49,0-66.99,0-100.48,0-1.8,0-3.61,0-6.32,0,1.23,1.6,1.87,2.64,2.71,3.49,6.44,6.52,12.96,12.96,19.37,19.51,3.59,3.67,3.79,8.1,.68,11.02-2.97,2.8-7.06,2.52-10.62-1.01-11.36-11.26-22.67-22.57-33.92-33.95C2.14,191.76,1.19,189.76,0,188c0-.33,0-.67,0-1Z"/>
    </g>
  </g>
</svg>