<?xml version="1.0" encoding="UTF-8"?>
<svg id="Layer_2" data-name="Layer 2" xmlns="http://www.w3.org/2000/svg" viewBox="0 0 250 250">
  <defs>
    <style>
      .cls-1 {
        fill: none;
      }

      .cls-2 {
        fill: #1d1d1f;
      }
    </style>
  </defs>
  <g id="Layer_1-2" data-name="Layer 1">
    <g>
      <path class="cls-1" d="M0,0H250V250H0V0Z"/>
      <path class="cls-2" d="M234.82,128.47l-29.2-32.09c-4-4.43-9.81-6.78-15.77-6.38h-19.85v-25.05c0-13.81-11.19-25-25-25H35c-13.81,0-25,11.19-25,25v97.5c0,13.81,11.19,25,25,25h5.48c2.29,13.14,13.68,22.73,27.02,22.75,12.61,.59,23.85-7.9,26.72-20.2h66.81c3.99,14.62,19.07,23.24,33.69,19.26,10.19-2.78,17.89-11.16,19.78-21.56h7.35c9.1,.91,17.22-5.73,18.13-14.83,.1-1.02,.11-2.05,.02-3.07v-28.08c.02-4.91-1.84-9.65-5.18-13.25Zm-150.56,58.98c-2.58,9.26-12.18,14.67-21.44,12.08-5.87-1.64-10.45-6.22-12.08-12.08-1.04-3.26-.98-6.77,.15-10,2.83-9.17,12.55-14.32,21.73-11.49,5.5,1.69,9.8,6,11.49,11.49,1.13,3.23,1.19,6.74,.15,10Zm10.21-7.45c-1.37-14.99-14.63-26.04-29.62-24.67-12.14,1.11-22.07,10.14-24.32,22.12h-5.53c-8.28-.01-14.99-6.72-15-15V64.95c.01-8.28,6.72-14.99,15-15h110c8.28,.01,14.99,6.72,15,15v115.05H94.47Zm109.72,7.7c-2.69,9.21-12.34,14.51-21.55,11.82-5.7-1.66-10.16-6.12-11.82-11.82-1.09-3.24-1.09-6.76,0-10,2.62-9.26,12.26-14.63,21.51-12.01,9.26,2.62,14.63,12.26,12.01,21.51-.05,.17-.1,.33-.15,.5Zm25.81-17.9c0,5.69-2.29,7.9-8.15,7.9h-7.35c-2.65-14.84-16.83-24.73-31.67-22.08-4.73,.84-9.16,2.92-12.83,6.03v-61.65h19.86c3.14-.37,6.26,.8,8.38,3.14l29.27,32.14c1.61,1.76,2.5,4.06,2.49,6.44v28.08Zm-13.24-33.6c1.09,.96,1.73,2.34,1.74,3.8h-33.06c-2.74,.25-5.17-1.76-5.43-4.51-.02-.26-.03-.51-.01-.77v-24.72h10.73c2.28-.04,4.46,.94,5.94,2.68l20.09,23.52Z"/>
    </g>
  </g>
</svg>