<?xml version="1.0" encoding="UTF-8"?>
<svg id="Layer_2" data-name="Layer 2" xmlns="http://www.w3.org/2000/svg" viewBox="0 0 250 250">
  <defs>
    <style>
      .cls-1 {
        fill: none;
      }

      .cls-2 {
        fill: #1d1d1f;
      }
    </style>
  </defs>
  <g id="Layer_1-2" data-name="Layer 1">
    <g>
      <path class="cls-1" d="M0,0H250V250H0V0Z"/>
      <path class="cls-2" d="M125,220c-52.47,0-95-42.53-95-95,0-23.26,8.53-45.71,23.98-63.1,2.02-2.27,5.5-2.48,7.77-.46s2.48,5.5,.46,7.77h0c-30.81,34.68-27.68,87.78,7.01,118.59,34.68,30.81,87.78,27.68,118.59-7.01,30.81-34.68,27.68-87.78-7.01-118.59-13.96-12.4-31.66-19.8-50.3-21.02v32.32c0,3.04-2.46,5.5-5.5,5.5s-5.5-2.46-5.5-5.5h0V30h5.5c52.47,0,95,42.53,95,95s-42.53,95-95,95Z"/>
      <path class="cls-2" d="M112.45,133.92l-32.71-48.4c-2.5-3.8,.8-7.6,4.8-4.8l48.31,32.7c4.67,2.68,7.59,7.62,7.7,13,.04,8.24-6.6,14.96-14.84,15-.05,0-.11,0-.16,0-5.36-.11-10.29-2.94-13.1-7.5Z"/>
    </g>
  </g>
</svg>