<?xml version="1.0" encoding="UTF-8"?>
<svg id="Layer_1" data-name="Layer 1" xmlns="http://www.w3.org/2000/svg" viewBox="0 0 469.33 470.64">
  <path d="M111.1,37.06c1.92,3.86,.94,7.81,.95,11.6,.08,62.07-.19,124.15,.12,186.22,.35,69.48,56.7,124.32,125.59,122.77,64.13-1.45,116.99-53.89,119.27-118.32,2.25-63.76-46.66-119.18-110.41-125.35-27-2.61-51.96,3.15-75.2,16.91-2.38,1.41-4.76,2.81-7.98,4.72-.3-2.74-.64-4.4-.64-6.06-.03-36.6,.13-73.2-.18-109.79-.05-6.18,2.02-8.69,7.76-10.43C298.54-29.41,440.34,56.87,464.99,188.74c24.75,132.38-58.6,253.88-190.85,278.2C144.3,490.82,16.2,396.15,1.75,264.47-8.44,171.63,26.01,97.75,100.89,42.42c3-2.22,5.77-5.34,10.21-5.36Z"/>
  <path d="M234.89,163.67c39.84,.12,71.67,32.02,71.61,71.76-.06,39.69-31.97,71.75-71.66,71.97-39.97,.22-72.38-32.42-72.06-72.57,.32-39.88,32.15-71.29,72.11-71.17Z"/>
</svg>